<?xml version="1.0" encoding="utf-8"?>
<!-- Generator: Adobe Illustrator 18.1.1, SVG Export Plug-In . SVG Version: 6.00 Build 0)  -->
<svg version="1.1" id="Layer_1" xmlns="http://www.w3.org/2000/svg" xmlns:xlink="http://www.w3.org/1999/xlink" x="0px" y="0px"
	 viewBox="0 0 2160 4320" enable-background="new 0 0 2160 4320" xml:space="preserve">
<g>
	<g>
		<path fill="#1A4C71" d="M1377.7,2196.8c0,0,90,12.3,153.5,39.5c0,0-94.7,285.9-452.1,200.7
			C1078.7,2437,1344.3,2373.9,1377.7,2196.8z"/>
		<path fill="#1A4C71" d="M1345.4,2021.9c0,0-104.1,10.2-177.8,56.6c0,0,83.8,194.1-89.3,334.9
			C1078.7,2413.4,1438.7,2333.6,1345.4,2021.9z"/>
		<path fill="#1A4C71" d="M686.1,2196.8c0,0-90,12.3-153.5,39.5c0,0,94.7,285.9,452.1,200.7C984.8,2437,719.2,2373.9,686.1,2196.8z"
			/>
		<path fill="#1A4C71" d="M718.1,2021.9c0,0,104.1,10.2,177.8,56.6c0,0-83.8,194.1,89.3,334.9
			C984.8,2413.4,624.8,2333.6,718.1,2021.9z"/>
		<path fill="#1A4C71" d="M1033.4,1951.9c0,0,297.9,230.4,0,460.1C1033.4,2412,739.8,2205.9,1033.4,1951.9z"/>
	</g>
</g>
</svg>
